# xmcd
#
# Track frame offsets: 
#        183
#        27733
#        36583
#        52520
#        78638
#        97020
#        115715
#        127433
#        146108
#        161808
#        186408
#        213225
#        225033
#        244823
#        266153
#        270098
#        277598
#
# Disc length: 3901 seconds
#
# Revision: 2
# Processed by: cddbd v1.5.2PL0 Copyright (c) Steve Scherf et al.
# Submitted via: ExactAudioCopy v0.95b4
#
DISCID=f30f3b11
DTITLE=Hannes Meyer and Sonare Quartett - Barocke Orgelkonzerte
DYEAR=1986
DGENRE=Organ and Orchestra
TTITLE0=Paradies--Concerto B-Dur  I.Vivace
TTITLE1=Paradies--Concerto B-Dur  II.Andante affettuoso
TTITLE2=Paradies--Concerto B-Dur  III.Presto
TTITLE3=Stanley--Concerto C-moll  I.Vivace
TTITLE4=Stanley--Concerto C-moll  II.Andante affettuoso
TTITLE5=Stanley--Concerto C-moll  III.Presto
TTITLE6=Corrette--Concerto A-Dur  I.Allegro
TTITLE7=Corrette--Concerto A-Dur  II.Adagio
TTITLE8=Corrette--Concerto A-Dur  III.Giga, Allegro
TTITLE9=Durante--Concerto II G-moll  I.Affettuoso
TTITLE10=Durante--Concerto II G-moll  II.Largo affettuoso
TTITLE11=Durante--Concerto II G-moll  III.Allegro affettuoso
TTITLE12=Meyer--Suite Paysanne  I.Allegro, Ecossaise
TTITLE13=Meyer--Suite Paysanne  II.Andante, Ecossaise
TTITLE14=Meyer--Suite Paysanne  III.Marzuke, Rondo, Canon a 4 voci
TTITLE15=Meyer--Suite Paysanne  IV.Alpsegen
TTITLE16=Meyer--Suite Paysanne  V.Marcia
EXTD=YEAR: 1986
EXTT0=
EXTT1=
EXTT2=
EXTT3=
EXTT4=
EXTT5=
EXTT6=
EXTT7=
EXTT8=
EXTT9=
EXTT10=
EXTT11=
EXTT12=
EXTT13=
EXTT14=
EXTT15=
EXTT16=
PLAYORDER=
